<svg xmlns="http://www.w3.org/2000/svg" id="Layer_2" viewBox="0 0 3618.6 3618.6">
  <style>
    .st0{fill:#222222;} .st1{fill:#00D8FF;} .st2{fill:none;stroke:#00D8FF;stroke-width:144.7456;stroke-miterlimit:10;}
  </style>
  <path d="M0 0h3618.6v3618.6H0z" class="st0"/>
  <circle cx="1806.5" cy="1807.1" r="302.6" class="st1"/>
  <path d="M1806.5 1192c406.2 0 783.6 58.2 1068 156 343 118 553.7 297 553.7 459 0 168.8-223.4 359-591.5 480.8-278.3 92.2-644.6 140.4-1030.2 140.4-395.4 0-769.7-45.2-1051.2-141.4-356-121.7-570.6-314.2-570.6-479.8 0-160.7 201.3-338.2 539.3-456 285.6-99.5 672.3-159 1082.5-159z" class="st2"/>
  <path d="M1271 1501.3c203-352 442-649.7 669-847.2 273.5-238 533.8-331 674-250.2 146.3 84.3 199.4 372.8 121 752.7-59 287.2-200.3 628.5-393 962.6-197.5 342.6-423.7 644.3-647.6 840C1411 3207 1137 3296.5 993.7 3213.8c-139.2-80.3-192.4-343.3-125.7-695 56.4-297.4 198-662 403-1017.4z" class="st2"/>
  <path d="M1271.5 2119.8c-203.5-351.6-342-707.4-400-1002.7-69.5-355.7-20.3-627.8 120-709 146-84.5 422.4 13.6 712.4 271 219.2 194.8 444.3 487.6 637.5 821.4 198 342.2 346.6 688.8 404.3 980.5 73 369 14 651.2-129.4 734-139 80.6-393.5-4.6-665-238-229-197.4-474.4-502.2-680-857.2z" class="st2"/>
</svg>
